<svg width="32" height="32" viewBox="0 0 32 32" fill="none" xmlns="http://www.w3.org/2000/svg">
<path d="M15.4166 7.74753C15.4166 6.18845 13.5316 5.40765 12.4292 6.51009L7.76252 11.1768C7.71564 11.2236 7.65205 11.25 7.58575 11.25H3.66663C2.70013 11.25 1.91663 12.0335 1.91663 13V19C1.91663 19.9665 2.70013 20.75 3.66663 20.75H7.58575C7.65205 20.75 7.71564 20.7763 7.76252 20.8232L12.4292 25.4899C13.5316 26.5923 15.4166 25.8115 15.4166 24.2524V7.74753Z" stroke="white" stroke-width="1.5" stroke-linecap="round" stroke-linejoin="round"/>
<path d="M25.4266 6.5733C27.9263 9.07367 29.3305 12.4644 29.3305 16C29.3305 19.5355 27.9263 22.9263 25.4266 25.4266M20.72 11.28C21.9698 12.5302 22.6719 14.2255 22.6719 15.9933C22.6719 17.7611 21.9698 19.4565 20.72 20.7066" stroke="white" stroke-width="1.5" stroke-linecap="round" stroke-linejoin="round"/>
</svg>
